<svg width="17" height="17" viewBox="0 0 17 17" fill="none" xmlns="http://www.w3.org/2000/svg">
<path fill-rule="evenodd" clip-rule="evenodd" d="M7 0C5.067 0 3.5 1.567 3.5 3.5C3.5 5.433 5.067 7 7 7C8.933 7 10.5 5.433 10.5 3.5C10.5 1.567 8.933 0 7 0ZM5 3.5C5 2.39543 5.89543 1.5 7 1.5C8.10457 1.5 9 2.39543 9 3.5C9 4.60457 8.10457 5.5 7 5.5C5.89543 5.5 5 4.60457 5 3.5Z" fill="#4A4A4A"/>
<path d="M2.82727 11.9552C3.66915 10.4398 5.26644 9.5 6.99999 9.5C7.4142 9.5 7.74999 9.16421 7.74999 8.75C7.74999 8.33579 7.4142 8 6.99999 8C4.72169 8 2.62247 9.23519 1.51603 11.2268L1.07937 12.0128C0.584057 12.9043 1.22875 14 2.24867 14H8.24999C8.6642 14 8.99999 13.6642 8.99999 13.25C8.99999 12.8358 8.6642 12.5 8.24999 12.5H2.52463L2.82727 11.9552Z" fill="#4A4A4A"/>
<path d="M13.125 9.5C13.6082 9.5 14 9.10825 14 8.625C14 8.14175 13.6082 7.75 13.125 7.75C12.6418 7.75 12.25 8.14175 12.25 8.625C12.25 9.10825 12.6418 9.5 13.125 9.5Z" fill="#4A4A4A"/>
<path fill-rule="evenodd" clip-rule="evenodd" d="M15.6745 11.8747C16.3217 11.4561 16.75 10.7281 16.75 9.9V8.625C16.75 6.62297 15.127 5 13.125 5C11.123 5 9.5 6.62297 9.5 8.625V9.9C9.5 10.8004 10.0064 11.5826 10.75 11.9772V13.8509C10.75 14.24 10.8635 14.6207 11.0766 14.9462L11.4986 15.591C12.1635 16.6068 13.5727 16.8007 14.4873 16.0023L15.0399 15.5198C15.7394 14.9091 15.9009 13.9369 15.5338 13.1584C15.7228 12.7633 15.7765 12.3088 15.6745 11.8747ZM12.2026 10.9609C12.1351 10.8353 12.0025 10.75 11.85 10.75C11.3806 10.75 11 10.3694 11 9.9V8.625C11 7.4514 11.9514 6.5 13.125 6.5C14.2986 6.5 15.25 7.4514 15.25 8.625V9.9C15.25 10.3694 14.8694 10.75 14.4 10.75H14.1818C13.9938 10.75 13.8301 10.8537 13.7447 11.0071C13.7202 11.051 13.7021 11.0991 13.6918 11.15C13.6853 11.1823 13.6818 11.2158 13.6818 11.25V11.3215C13.6818 11.4106 13.7056 11.4975 13.75 11.5736C13.7632 11.5961 13.7781 11.6177 13.7948 11.6381L14.1262 12.0431C14.1487 12.0706 14.1672 12.0998 14.1818 12.13C14.2004 12.1685 14.2129 12.2087 14.2194 12.2493C14.2497 12.4405 14.15 12.6426 13.9533 12.7227C13.8642 12.759 13.7958 12.8192 13.75 12.8915C13.6613 13.0314 13.657 13.2166 13.75 13.3612C13.7742 13.3988 13.8049 13.4336 13.8424 13.4642L14.0405 13.6256C14.2807 13.8213 14.2869 14.1861 14.0535 14.3898L13.5008 14.8723C13.2722 15.0719 12.9199 15.0234 12.7536 14.7695L12.3316 14.1247C12.2784 14.0434 12.25 13.9482 12.25 13.8509V11.15C12.25 11.0816 12.2328 11.0172 12.2026 10.9609Z" fill="#4A4A4A"/>
</svg>
