<svg width="15" height="15" viewBox="0 0 15 15" fill="none" xmlns="http://www.w3.org/2000/svg">
<path d="M5 3.5C5 4.05228 4.55228 4.5 4 4.5C3.44772 4.5 3 4.05228 3 3.5C3 2.94772 3.44772 2.5 4 2.5C4.55228 2.5 5 2.94772 5 3.5Z" fill="#4A4A4A"/>
<path fill-rule="evenodd" clip-rule="evenodd" d="M0.5 2.25C0.5 1.2835 1.2835 0.5 2.25 0.5H11.75C12.7165 0.5 13.5 1.2835 13.5 2.25V4.75C13.5 5.7165 12.7165 6.5 11.75 6.5H2.25C1.2835 6.5 0.5 5.7165 0.5 4.75V2.25ZM2.25 2C2.11193 2 2 2.11193 2 2.25V4.75C2 4.88807 2.11193 5 2.25 5H11.75C11.8881 5 12 4.88807 12 4.75V2.25C12 2.11193 11.8881 2 11.75 2H2.25Z" fill="#4A4A4A"/>
<path d="M2.25 9C2.11193 9 2 9.11193 2 9.25V11.75C2 11.8881 2.11193 12 2.25 12H7.25C7.66421 12 8 12.3358 8 12.75C8 13.1642 7.66421 13.5 7.25 13.5H2.25C1.2835 13.5 0.5 12.7165 0.5 11.75V9.25C0.5 8.2835 1.2835 7.5 2.25 7.5H9C9.41421 7.5 9.75 7.83579 9.75 8.25C9.75 8.66421 9.41421 9 9 9H2.25Z" fill="#4A4A4A"/>
<path d="M4 11.5C4.55228 11.5 5 11.0523 5 10.5C5 9.94771 4.55228 9.5 4 9.5C3.44772 9.5 3 9.94771 3 10.5C3 11.0523 3.44772 11.5 4 11.5Z" fill="#4A4A4A"/>
<path fill-rule="evenodd" clip-rule="evenodd" d="M13.8775 10.8387C13.9022 10.9721 13.915 11.1095 13.915 11.25C13.915 11.3905 13.9022 11.5279 13.8775 11.6613L14.2051 11.8504C14.5638 12.0575 14.6867 12.5162 14.4796 12.8749C14.2725 13.2336 13.8138 13.3565 13.4551 13.1494L13.1273 12.9601C12.9193 13.1382 12.6784 13.2789 12.415 13.372V13.75C12.415 14.1642 12.0793 14.5 11.665 14.5C11.2508 14.5 10.915 14.1642 10.915 13.75V13.372C10.6517 13.2789 10.4109 13.1382 10.203 12.9603L9.87502 13.1496C9.5163 13.3567 9.05761 13.2338 8.8505 12.8751C8.64339 12.5164 8.7663 12.0577 9.12502 11.8506L9.45258 11.6615C9.42792 11.5281 9.41504 11.3905 9.41504 11.25C9.41504 11.1095 9.42792 10.9719 9.45258 10.8385L9.12502 10.6494C8.7663 10.4423 8.64339 9.98361 8.8505 9.6249C9.05761 9.26618 9.5163 9.14327 9.87502 9.35038L10.203 9.53972C10.4109 9.36177 10.6517 9.22109 10.915 9.12803V8.75C10.915 8.33579 11.2508 8 11.665 8C12.0793 8 12.415 8.33579 12.415 8.75V9.12803C12.6784 9.22112 12.9193 9.36184 13.1273 9.53986L13.4551 9.35059C13.8138 9.14348 14.2725 9.26639 14.4796 9.6251C14.6867 9.98382 14.5638 10.4425 14.2051 10.6496L13.8775 10.8387ZM10.915 11.25C10.915 11.1167 10.9498 10.9916 11.0107 10.8831L11.0156 10.8749L11.0199 10.8673C11.1506 10.6474 11.3906 10.5 11.665 10.5C11.9384 10.5 12.1776 10.6463 12.3087 10.8648C12.3106 10.8683 12.3126 10.8717 12.3145 10.8751C12.3166 10.8787 12.3187 10.8822 12.3208 10.8857C12.3808 10.9936 12.415 11.1178 12.415 11.25C12.415 11.3822 12.3808 11.5064 12.3208 11.6143L12.3145 11.6249L12.3087 11.6352C12.1776 11.8537 11.9384 12 11.665 12C11.3906 12 11.1506 11.8526 11.0199 11.6327L11.0156 11.6251L11.0107 11.6169C10.9498 11.5084 10.915 11.3833 10.915 11.25Z" fill="#4A4A4A"/>
</svg>
