<svg width="14" height="12" viewBox="0 0 14 12" fill="none" xmlns="http://www.w3.org/2000/svg">
<path d="M1.5 7.5C1.5 4.46243 3.96243 2 7 2C7.68063 2 8.33239 2.12363 8.93404 2.34967L9.3895 1.36869C9.45174 1.23463 9.53128 1.11409 9.62422 1.00851C8.81381 0.680578 7.92799 0.5 7 0.5C3.13401 0.5 0 3.63401 0 7.5C0 8.71634 0.310866 9.86231 0.858069 10.8605C1.05718 11.2237 1.51304 11.3568 1.87626 11.1577C2.23947 10.9586 2.37251 10.5027 2.1734 10.1395C1.7443 9.3567 1.5 8.458 1.5 7.5Z" fill="#4A4A4A"/>
<path d="M12.0843 2.68853L11.3893 4.18533C12.0865 5.10706 12.5 6.25524 12.5 7.5C12.5 8.458 12.2557 9.3567 11.8266 10.1395C11.6275 10.5027 11.7605 10.9586 12.1237 11.1577C12.487 11.3568 12.9428 11.2237 13.1419 10.8605C13.6891 9.86231 14 8.71634 14 7.5C14 5.6364 13.2717 3.94288 12.0843 2.68853Z" fill="#4A4A4A"/>
<path fill-rule="evenodd" clip-rule="evenodd" d="M7 12C8.10457 12 9 11.1046 9 10C9 9.48457 8.80502 9.01468 8.4848 8.66006L11.4302 2.31601C11.6047 1.94032 11.4415 1.49435 11.0658 1.31992C10.6901 1.14549 10.2442 1.30865 10.0697 1.68435L7.13537 8.00451C7.09063 8.00152 7.04549 8 7 8C5.89543 8 5 8.89543 5 10C5 11.1046 5.89543 12 7 12ZM7 10.5C7.27614 10.5 7.5 10.2761 7.5 10C7.5 9.72386 7.27614 9.5 7 9.5C6.72386 9.5 6.5 9.72386 6.5 10C6.5 10.2761 6.72386 10.5 7 10.5Z" fill="#4A4A4A"/>
</svg>
