<svg width="14" height="12" viewBox="0 0 14 12" fill="none" xmlns="http://www.w3.org/2000/svg">
<path d="M3.75 0C1.67893 0 0 1.67893 0 3.75V6.25C0 8.32107 1.67893 10 3.75 10H5.25C5.66421 10 6 9.66421 6 9.25C6 8.83579 5.66421 8.5 5.25 8.5H3.75C2.50736 8.5 1.5 7.49264 1.5 6.25V3.75C1.5 2.50736 2.50736 1.5 3.75 1.5H10.25C11.4926 1.5 12.5 2.50736 12.5 3.75V4.25C12.5 4.66421 12.8358 5 13.25 5C13.6642 5 14 4.66421 14 4.25V3.75C14 1.67893 12.3211 0 10.25 0H3.75Z" fill="#4A4A4A"/>
<path d="M6.46444 4.46444C6.66867 4.26021 6.97203 4.1914 7.24439 4.28753L13.2548 6.40885C13.4977 6.49458 13.6796 6.69897 13.7366 6.95019C13.7936 7.2014 13.7177 7.46428 13.5355 7.64642L12.2981 8.88386L13.7123 10.2981C14.0052 10.591 14.0052 11.0658 13.7123 11.3587L13.3587 11.7123C13.0658 12.0052 12.591 12.0052 12.2981 11.7123L10.8839 10.2981L9.64642 11.5355C9.46428 11.7177 9.2014 11.7936 8.95019 11.7366C8.69897 11.6796 8.49458 11.4977 8.40885 11.2548L6.28753 5.24439C6.1914 4.97203 6.26021 4.66867 6.46444 4.46444Z" fill="#4A4A4A"/>
</svg>
