<svg width="14" height="14" viewBox="0 0 14 14" fill="none" xmlns="http://www.w3.org/2000/svg">
<path d="M7.75 9.75021C7.75 10.1644 7.41421 10.5002 7 10.5002C6.58579 10.5002 6.25 10.1644 6.25 9.75021V3.06087L4.53033 4.78054C4.23744 5.07344 3.76256 5.07344 3.46967 4.78054C3.17678 4.48765 3.17678 4.01278 3.46967 3.71988L6.46967 0.719884C6.76256 0.42699 7.23744 0.42699 7.53033 0.719884L10.5303 3.71988C10.8232 4.01278 10.8232 4.48765 10.5303 4.78054C10.2374 5.07344 9.76256 5.07344 9.46967 4.78054L7.75 3.06087L7.75 9.75021Z" fill="white"/>
<path d="M13.5 10.7502C13.5 10.336 13.1642 10.0002 12.75 10.0002C12.3358 10.0002 12 10.336 12 10.7502V11.5102C12 11.9244 11.6642 12.2602 11.25 12.2602L2.75 12.2602C2.33579 12.2602 2 11.9244 2 11.5102L2 10.7502C2 10.336 1.66421 10.0002 1.25 10.0002C0.835787 10.0002 0.5 10.336 0.5 10.7502V11.5102C0.5 12.7529 1.50736 13.7602 2.75 13.7602L11.25 13.7602C12.4926 13.7602 13.5 12.7529 13.5 11.5102V10.7502Z" fill="white"/>
</svg>
