<svg width="8" height="14" viewBox="0 0 8 14" fill="none" xmlns="http://www.w3.org/2000/svg">
<path d="M4.88388 1.32336C4.39573 0.835206 3.60427 0.835206 3.11612 1.32336L0.46967 3.96981C0.176777 4.2627 0.176777 4.73758 0.46967 5.03047C0.762563 5.32336 1.23744 5.32336 1.53033 5.03047L4 2.5608L6.46967 5.03047C6.76256 5.32336 7.23744 5.32336 7.53033 5.03047C7.82322 4.73758 7.82322 4.2627 7.53033 3.96981L4.88388 1.32336Z" fill="#8A8A8A"/>
<path d="M7.53033 10.0306L4.88388 12.6771C4.39573 13.1652 3.60427 13.1652 3.11612 12.6771L0.46967 10.0306C0.176777 9.73773 0.176777 9.26285 0.46967 8.96996C0.762563 8.67707 1.23744 8.67707 1.53033 8.96996L4 11.4396L6.46967 8.96996C6.76256 8.67707 7.23744 8.67707 7.53033 8.96996C7.82322 9.26285 7.82322 9.73773 7.53033 10.0306Z" fill="#8A8A8A"/>
</svg>
