<svg width="14" height="14" viewBox="0 0 14 14" fill="none" xmlns="http://www.w3.org/2000/svg">
<path fill-rule="evenodd" clip-rule="evenodd" d="M5.44697 1.5C5.00114 1.5 4.61903 1.81867 4.53896 2.25725L3.53735 7.74387C3.2988 9.05057 2.16035 10 0.832058 10H0.75C0.335786 10 0 9.66421 0 9.25C0 8.83579 0.335786 8.5 0.75 8.5H0.832058C1.43583 8.5 1.95331 8.06844 2.06174 7.47448L3.06335 1.98787C3.27353 0.836541 4.27661 0 5.44697 0C6.71534 0 7.76907 0.978167 7.86328 2.24304L8.57919 11.8548C8.60629 12.2186 8.90939 12.5 9.27423 12.5C9.61494 12.5 9.90571 12.2537 9.96172 11.9176L10.4817 8.7979C10.7027 7.47189 11.8499 6.5 13.1943 6.5H13.25C13.6642 6.5 14 6.83579 14 7.25C14 7.66421 13.6642 8 13.25 8H13.1943C12.5832 8 12.0617 8.44177 11.9613 9.0445L11.4413 12.1642C11.2648 13.2236 10.3482 14 9.27423 14C8.12419 14 7.16876 13.1131 7.08334 11.9662L6.36743 2.35445C6.33154 1.87262 5.93013 1.5 5.44697 1.5Z" fill="#4A4A4A"/>
</svg>
